<svg id="Layer_1" data-name="Layer 1" xmlns="http://www.w3.org/2000/svg" viewBox="0 0 50.7 42.18"><defs><style>.cls-1{fill:#ccc;}.cls-2{fill:#fff;}.cls-3{fill:red;}.cls-4{fill:#ff8080;}.cls-5{fill:#c00;}</style></defs><path class="cls-1" d="M50.7,13.82a12.22,12.22,0,1,1,0-.68Z"/><path class="cls-2" d="M38.48,23.26a9.78,9.78,0,1,1,9.78-9.78A9.77,9.77,0,0,1,38.48,23.26Zm0-21A11.25,11.25,0,1,0,49.74,13.48,11.25,11.25,0,0,0,38.48,2.23Z"/><path class="cls-2" d="M36.43,11.57l.73,1.14,1-.78v6.43h1.37V10h-1Z"/><path class="cls-3" d="M.24,26.75C1.76,17.08,12.5,9.05,12.5,9.05H24.65s10.74,8,12.26,17.7c1,6-.66,15.43-9.5,15.43H9.74C.9,42.18-.71,32.73.24,26.75Z"/><path class="cls-4" d="M.25,27.24C1.77,17.58,12.51,9,12.51,9h.37c-4.09,6-13,18.09-9.1,31.32C.2,37.24-.42,31.5.25,27.24Z"/><path class="cls-3" d="M9.09,0H27.4c3.07,0-2.1,8.21-2.1,8.21l-7,.21-7.06-.34S6,0,9.09,0Z"/><path class="cls-2" d="M15.81,20.09h4.81a4,4,0,1,1,0,8h-2.8v1h5v2h-5v2h-2v-2h-2v-2h2v-1h-2v-2h2Zm4.68,6a2.52,2.52,0,0,0,0-5H17.82v5Z"/><path class="cls-4" d="M9.08,0h1.6l1.54,8.2-1-.25S6,0,9.08,0Z"/><path class="cls-5" d="M36.37,25.41c-1.88-6.15-7-11.36-9.84-13.85a11.08,11.08,0,0,0-.17,1.93A12.11,12.11,0,0,0,36.37,25.41Z"/></svg>