<svg id="Layer_1" data-name="Layer 1" xmlns="http://www.w3.org/2000/svg" viewBox="0 0 53.97 54.48"><defs><style>.cls-1{fill:red;}.cls-1,.cls-3{fill-rule:evenodd;}.cls-2{fill:#fff;}.cls-3{fill:#ff8080;}</style></defs><path class="cls-1" d="M21,45.15h12.6v2.1H21Z"/><path class="cls-1" d="M33.61,49.35v-.58H32.8Z"/><path class="cls-1" d="M42,26.85A14.69,14.69,0,1,0,21,40.1v3.54h12.6V40.1A14.66,14.66,0,0,0,42,26.85Z"/><path class="cls-1" d="M27.33,7.69a1,1,0,0,0,1-1V1a1,1,0,1,0-2,0V6.66A1,1,0,0,0,27.33,7.69Z"/><path class="cls-1" d="M16.23,9.72a1,1,0,0,0,.9.52A1,1,0,0,0,18,8.69L15.2,3.82a1,1,0,0,0-1.41-.38,1,1,0,0,0-.37,1.41Z"/><path class="cls-1" d="M4.17,14.6,9,17.41a.94.94,0,0,0,.51.14,1,1,0,0,0,.89-.51,1,1,0,0,0-.37-1.41L5.2,12.82a1,1,0,1,0-1,1.78Z"/><path class="cls-1" d="M7.68,26.64a1,1,0,0,0-1-1H1a1,1,0,0,0,0,2.06H6.65A1,1,0,0,0,7.68,26.64Z"/><path class="cls-1" d="M8.69,36,3.82,38.78a1,1,0,0,0-.38,1.4,1,1,0,0,0,.9.52,1.06,1.06,0,0,0,.51-.14l4.87-2.82a1,1,0,1,0-1-1.78Z"/><path class="cls-1" d="M49.81,39.37l-4.88-2.81a1,1,0,0,0-1,1.78l4.88,2.82a1.06,1.06,0,0,0,.52.13,1,1,0,0,0,.89-.51A1,1,0,0,0,49.81,39.37Z"/><path class="cls-1" d="M52.94,26.3H47.32a1,1,0,0,0,0,2.06h5.62a1,1,0,1,0,0-2.06Z"/><path class="cls-1" d="M44.76,18.15a1,1,0,0,0,.52-.14l4.88-2.81a1,1,0,0,0,.37-1.41,1,1,0,0,0-1.4-.37l-4.88,2.81a1,1,0,0,0-.38,1.41A1,1,0,0,0,44.76,18.15Z"/><path class="cls-1" d="M36.94,10.45a1.05,1.05,0,0,0,1.41-.38l2.8-4.88a1,1,0,0,0-.37-1.4,1,1,0,0,0-1.4.38L36.56,9A1,1,0,0,0,36.94,10.45Z"/><path class="cls-2" d="M16.24,27.3A11.71,11.71,0,0,1,28,15.58v2a9.75,9.75,0,0,0-9.75,9.74Z"/><path class="cls-3" d="M19.58,39.32,37.09,15.89A14.68,14.68,0,1,0,19.58,39.32Zm1.49-18.91a9.69,9.69,0,0,0-2.86,6.89h-2A11.71,11.71,0,0,1,28,15.58v2A9.72,9.72,0,0,0,21.07,20.41Z"/><path class="cls-1" d="M21,48.77h12.6v2.1H21Z"/><path class="cls-1" d="M23.39,52.38h7.84v2.1H23.39Z"/></svg>