<svg id="Layer_1" data-name="Layer 1" xmlns="http://www.w3.org/2000/svg" viewBox="0 0 49.74 54.72"><defs><style>.cls-1{fill:red;}.cls-1,.cls-2,.cls-3,.cls-4,.cls-5{fill-rule:evenodd;}.cls-2{fill:#ff8080;}.cls-3{fill:#ccc;}.cls-4{fill:#b3b3b3;}.cls-5{fill:#c00;}</style></defs><path class="cls-1" d="M42.44,45.84,49.74,42v-8.6l-7.3,3.86Z"/><path class="cls-1" d="M42.44,36.32l7.3-3.87v-8.6l-7.3,3.86Z"/><path class="cls-2" d="M32.15,3.86,24.8,0,17.51,3.87l7.34,3.86Z"/><path class="cls-1" d="M23.92,8.15,16.57,4.28,9.28,8.15,16.62,12Z"/><path class="cls-2" d="M33.17,12l7.3-3.87L33.12,4.28l-7.3,3.87Z"/><path class="cls-1" d="M17.57,12.59l7.35,3.87,7.3-3.87L24.87,8.72Z"/><path class="cls-2" d="M41.56,8.57l-7.3,3.87,7.35,3.87,7.3-3.87Z"/><path class="cls-2" d="M8.33,8.57,1,12.44,8.37,16.3l7.3-3.87Z"/><path class="cls-2" d="M16.62,13l-7.3,3.87,7.35,3.86L24,16.88Z"/><path class="cls-1" d="M25.94,54.72l7.3-3.86V42.25l-7.3,3.87Z"/><path class="cls-1" d="M25.94,45.19l7.3-3.86V32.72l-7.3,3.87Z"/><path class="cls-2" d="M24.92,17.45l-7.3,3.86L25,25.18l7.3-3.87Z"/><path class="cls-3" d="M0,42l7.34,3.86v-8.6L0,33.37Z"/><path class="cls-3" d="M0,32.45l7.34,3.86v-8.6L0,23.85Z"/><path class="cls-3" d="M0,22.88l7.34,3.86v-8.6L0,14.28Z"/><path class="cls-4" d="M8.29,46.42l7.35,3.86v-8.6L8.29,37.81Z"/><path class="cls-4" d="M8.29,36.89l7.35,3.87V32.15L8.29,28.29Z"/><path class="cls-4" d="M8.29,27.32l7.35,3.86v-8.6L8.29,18.72Z"/><path class="cls-3" d="M16.59,50.85l7.35,3.87v-8.6l-7.35-3.87Z"/><path class="cls-3" d="M16.59,41.33l7.35,3.86v-8.6l-7.35-3.87Z"/><path class="cls-3" d="M16.59,31.76l7.35,3.86V27l-7.35-3.87Z"/><path class="cls-5" d="M34.19,50.28l7.3-3.86V37.81l-7.3,3.87Z"/><path class="cls-5" d="M34.19,40.75l7.3-3.86v-8.6l-7.3,3.86Z"/><path class="cls-1" d="M33.31,13,26,16.88l7.35,3.87,7.3-3.87Z"/><path class="cls-1" d="M42.44,18.27v8.6L49.74,23V14.4Z"/><path class="cls-1" d="M25.94,35.62l7.3-3.86V23.15L25.94,27Z"/><path class="cls-5" d="M34.19,31.31l7.3-3.86V18.84l-7.3,3.87Z"/></svg>