<svg id="Layer_1" data-name="Layer 1" xmlns="http://www.w3.org/2000/svg" viewBox="0 0 61.31 43.43"><defs><style>.cls-1{fill:#ccc;}.cls-2{fill:red;}.cls-3{fill:#c00;}</style></defs><path class="cls-1" d="M6.64,19.52,8.9,18.43l3.58-5.31,1.09-.42L14.74,18l-1.54.25L12,16.11l-.88,3.41H15l4,1,1.61-1,2.69,2.73,1.17-5.06,1.9,1.91,1.16-1.66,1.9-.5,2.77-2.57,2.7-.83,1,1.24L34,18.27l4-2.16v-1l1.79-.33,1.6,1.75L43,14.37V13l3.09-1.82,1.41-1.58h1.82l3.21-6.64L55.29,0l1,1.58-1.6,2.08.58,1.24,1.47.33,1.18,5.4v4.48l2.25,3,1.12,4.15-3.77-2.4L55.87,13l-1,.17-.14,4.74-2.78,4.39-.8,6.81,1.9.42.8-.91,1.83,2,1.38,6-.14,3.74H55.15L54.49,35l-1.24,1.75-2.7-.59-2.19-1.74-2.48.83.15,4-2,.49-2.92,2.25-3.5-.5-1.39-.75L34.07,41l.72.92-1.74,1-1.39-.66L29,43.43l-4-2L23.49,38l-1.31.17-1.53-1.25L20.57,36l-4.89-.59L14.88,38l-3.06-1.16-1.53-2.41H7l-.36,3.91-1.9.49-1,3.66-.73-.67L0,34.05,3.65,32.3l-.59-3.48-.58-3.49,1.6-2.24-.5-1.42,2.19-2.32Z"/><path class="cls-2" d="M30.33,14.29a3.91,3.91,0,1,1,3.89-3.91A3.9,3.9,0,0,1,30.33,14.29Zm0-12.22a8.54,8.54,0,0,0-8.52,8.56c0,4.73,8.52,14.45,8.52,14.45s8.52-9.72,8.52-14.45A8.54,8.54,0,0,0,30.33,2.07Z"/><path class="cls-3" d="M30.33,25.08a71.06,71.06,0,0,0,5.82-7.81l-1.94,1L31.1,15.2l-3.53,2.24-3.06-.25,0,.08A71.29,71.29,0,0,0,30.33,25.08Z"/></svg>