<svg id="Layer_1" data-name="Layer 1" xmlns="http://www.w3.org/2000/svg" viewBox="0 0 52.91 52.91"><defs><style>.cls-1{fill:#ccc;}.cls-2{fill:#ff8080;}.cls-3{fill:red;}.cls-4{fill:#e6e6e6;}</style></defs><path class="cls-1" d="M.67,52.91,0,52.24l16.7-16.7.66.67Z"/><path class="cls-1" d="M7.4,40.85l-.67-.67L14,32.87l.67.67Z"/><path class="cls-1" d="M12.71,46.17l-.66-.66,7.31-7.31.66.67Z"/><path class="cls-2" d="M37.2,11.91A3.83,3.83,0,0,1,41,8.08a3.89,3.89,0,0,1,2.7,1.1L52.91,0C52.84,0,36.16-.37,30,5.81A53.78,53.78,0,0,0,19.6,21.49l-4.75.63L7.73,29.23l1.44,1.44,6.3-3.56,1.46.7-1.22,2.75L19,33.87,38.31,14.6A3.79,3.79,0,0,1,37.2,11.91Z"/><path class="cls-3" d="M31.43,33.32A53.11,53.11,0,0,0,47.14,22.94C53.32,16.78,52.91,0,52.9,0L43.71,9.18A3.83,3.83,0,0,1,41,15.74a3.8,3.8,0,0,1-2.71-1.14L19,33.87l3.33,3.33,2.83-1.15.69,1.46-3.55,6.3,1.35,1.36,7.11-7.11Z"/><path class="cls-1" d="M41,15.74a3.83,3.83,0,0,0,3.84-3.83,3.89,3.89,0,0,0-1.15-2.73l-5.4,5.42A3.78,3.78,0,0,0,41,15.74Z"/><path class="cls-4" d="M37.2,11.91a3.79,3.79,0,0,0,1.11,2.69l5.4-5.42a3.83,3.83,0,0,0-6.51,2.73Z"/></svg>