<svg id="Layer_1" data-name="Layer 1" xmlns="http://www.w3.org/2000/svg" xmlns:xlink="http://www.w3.org/1999/xlink" viewBox="0 0 117 36"><defs><style>.cls-1{fill:none;}.cls-2{clip-path:url(#clip-path);}.cls-3{fill:#fefefe;}.cls-4{fill:#00985f;}.cls-5{fill:#dc000f;}</style><clipPath id="clip-path"><rect class="cls-1" width="117" height="36"/></clipPath></defs><g class="cls-2"><path class="cls-3" d="M28.8,9.43a.67.67,0,0,0,0,1,.66.66,0,0,0,1,0,.72.72,0,1,0-1-1Z"/><path class="cls-4" d="M36,9H32.87l-.78.94c-.16.16-.08.24.08.32l1,.47,2.9-1.34A.2.2,0,0,0,36,9ZM24.34,24.37H20.5a13.72,13.72,0,0,1-2.66,1.33c-.07,0-.15.16-.07.24l3.44,9.67h2L20,26.72c2,0,7-.55,9.63-4.87A6.54,6.54,0,0,1,24.34,24.37Zm5.48-13.92a.66.66,0,0,1-1,0,.72.72,0,0,1,1-1,1.5,1.5,0,0,0-2.19,0,1.59,1.59,0,0,0,0,2.2,1.5,1.5,0,0,0,2.19,0,1.6,1.6,0,0,0,0-2.2A.84.84,0,0,1,29.82,10.45ZM22.23,28.06l2.66,7.55h1.95L24,27.67C23.56,27.83,22.93,27.9,22.23,28.06Zm2.66-9.43c.23-.32.39-.63.62-1-.08-.08-.15,0-.23.08a13.74,13.74,0,0,1-10.8,4.79H9.94a.2.2,0,0,1-.16-.31A64.07,64.07,0,0,1,20,11l-7.59,6.37a3.6,3.6,0,0,1-2.27.79H.63c-.24,0-.16.23-.16.39A5.61,5.61,0,0,0,6.1,22.48L3.83,24.76a.19.19,0,0,0,.16.31h8.53C18.63,25.07,22.46,22.4,24.89,18.63Z"/><path class="cls-5" d="M110,35.61h7V14h-7v7.94h-6.58V14h-7V35.61h7V27.43H110Zm-82.41-24a1.55,1.55,0,0,1,2.19-2.2,1.6,1.6,0,0,1,0,2.2A1.5,1.5,0,0,1,27.63,11.63Zm1.95,10.22c2.66-4.32,3.6-11.16,3.6-11.16l-1-.47c-.16-.08-.16-.16-.08-.32L32.87,9a5.45,5.45,0,0,0-4.7-2.51,7.07,7.07,0,0,0-4,1.17A49.64,49.64,0,0,0,20,10.93,66.63,66.63,0,0,0,9.78,22.09a.2.2,0,0,0,.16.31h4.54a13.74,13.74,0,0,0,10.8-4.79.27.27,0,0,1,.23-.08.28.28,0,0,1,.08.23,14.21,14.21,0,0,1-5.09,6.53h3.84A6.11,6.11,0,0,0,29.58,21.85ZM25.67,27l3,8.49H37.1c-1.73-5.27-3.6-10.14-5.4-14.62A10.78,10.78,0,0,1,25.67,27ZM0,35.61H8.53l2.9-9H3.13C2.11,29.24,1.1,32.23,0,35.61ZM11.5,16.19l4.31-3.54c.94-2.51,1.88-5,2.82-7.15C19.1,6.6,19.57,7.78,20,9c2.35-2,3.84-3.14,5.8-3.69C24.65,2.67,23.79.79,23.4,0H13.85C13.07,1.73,10,8.1,6.42,16.66H9.86A2.13,2.13,0,0,0,11.5,16.19Zm52.75,17,.47,2.36h5.64V14h-7V29a4.33,4.33,0,0,1-2.89,1.5c-2,0-3-1.1-3-3.15V14h-7V29a4.75,4.75,0,0,1-3.13,1.5c-1.8,0-2.82-1.1-2.82-3.15V14h-7V28.3c0,5.18,2.27,7.78,7,7.78a8.89,8.89,0,0,0,7-2.91c1.1,2,3.06,2.91,6,2.91A8.49,8.49,0,0,0,64.25,33.17ZM86.4,28.93A4.29,4.29,0,0,1,83,30.42c-1.87,0-2.89-1.73-2.89-5.11,0-4.17,1.09-6.21,3.36-6.21a10.46,10.46,0,0,1,2.9.31ZM80.61,36h.23c3.13,0,5.25-1.1,6.42-2.83l.39,2.36h5.72V14.86a30,30,0,0,0-9.79-1.34c-7,0-10.72,4.24-10.72,12.1C72.86,32.86,75.52,36,80.61,36Z"/></g></svg>