<svg id="Layer_1" data-name="Layer 1" xmlns="http://www.w3.org/2000/svg" viewBox="0 0 179.38 28"><defs><style>.cls-1{fill:#8dc63f;}.cls-2{fill:#5d1e79;}</style></defs><path class="cls-1" d="M20.68,12.54,27.75.28A.17.17,0,0,0,27.61,0h-4.5a2.77,2.77,0,0,0-2.48,1.41L13,14.56a.24.24,0,0,0,.1.29,14,14,0,0,1,7.92,7.28.21.21,0,0,1-.19.28H5.77a.2.2,0,0,1-.19-.19V5.78a.2.2,0,0,1,.19-.19h7.59A2.82,2.82,0,0,0,15.8,4.18L18.05.28A.17.17,0,0,0,17.91,0H.19A.2.2,0,0,0,0,.19V27.81A.2.2,0,0,0,.19,28H27.75a.2.2,0,0,0,.19-.19,19.57,19.57,0,0,0-7.22-15C20.63,12.73,20.63,12.64,20.68,12.54Z"/><path class="cls-2" d="M127.14,14.94A5.21,5.21,0,0,0,122,9.82a8.69,8.69,0,0,0-5.21,1.6c-.09,0-.09.14,0,.23l.51.94a.75.75,0,0,0,.94.28,7.07,7.07,0,0,1,3.8-.94,2.88,2.88,0,0,1,2.76,2.82v.75a.2.2,0,0,1-.19.19H120a4,4,0,0,0-4,3.9,4.07,4.07,0,0,0,3.94,4,7.89,7.89,0,0,0,4.73-1.31.22.22,0,0,1,.28,0l.38.71a.69.69,0,0,0,.61.33h1a.2.2,0,0,0,.18-.19Zm-2.81,5.5a5.79,5.79,0,0,1-3.84,1.26,2.21,2.21,0,0,1-2.2-2.11,2.1,2.1,0,0,1,2.1-2.11h4.22a.2.2,0,0,1,.19.18v1.79A1,1,0,0,1,124.33,20.44Z"/><path class="cls-2" d="M151.85,14.94a5.21,5.21,0,0,0-5.11-5.12,8.68,8.68,0,0,0-5.2,1.6c-.09,0-.09.14,0,.23l.52.94a.75.75,0,0,0,.94.28,7,7,0,0,1,3.79-.94,2.89,2.89,0,0,1,2.77,2.82v.75a.2.2,0,0,1-.19.19h-4.64a4,4,0,1,0-.09,7.94,7.87,7.87,0,0,0,4.73-1.31.22.22,0,0,1,.28,0l.38.71a.69.69,0,0,0,.61.33h1a.21.21,0,0,0,.19-.19V14.94ZM149,20.44a5.79,5.79,0,0,1-3.84,1.26A2.21,2.21,0,0,1,143,19.59a2.1,2.1,0,0,1,2.11-2.11h4.22a.2.2,0,0,1,.19.18v1.79A1.27,1.27,0,0,1,149,20.44Z"/><path class="cls-2" d="M163.25,10.71v4.7a.21.21,0,0,1-.19.19h-6.38a.21.21,0,0,1-.19-.19V10.24a.2.2,0,0,0-.18-.19h-2a.2.2,0,0,0-.19.19V23.16a.2.2,0,0,0,.19.19h1.45a.72.72,0,0,0,.7-.71V17.71a.21.21,0,0,1,.19-.19h6.38a.21.21,0,0,1,.19.19v5.45a.2.2,0,0,0,.18.19h2a.2.2,0,0,0,.19-.19V10.24a.2.2,0,0,0-.19-.19H164A.68.68,0,0,0,163.25,10.71Z"/><path class="cls-2" d="M109.28,14.14a.18.18,0,0,1,0-.28,7.15,7.15,0,0,0,2-2.16L115.14,5A.17.17,0,0,0,115,4.7h-1.82a1.45,1.45,0,0,0-1.22.7l-3.66,6.25a2.35,2.35,0,0,1-2,1.18h-2a.2.2,0,0,1-.19-.19V4.84a.2.2,0,0,0-.19-.19h-2.2a.2.2,0,0,0-.19.19V23.11a.2.2,0,0,0,.19.19h1.68a.72.72,0,0,0,.71-.7V15.36a.2.2,0,0,1,.19-.19h2a2.27,2.27,0,0,1,2,1.18l3.61,6.29a1.38,1.38,0,0,0,1.22.71H115a.17.17,0,0,0,.14-.28l-3.89-6.72A6.25,6.25,0,0,0,109.28,14.14Z"/><path class="cls-2" d="M137.37,16.63a.2.2,0,0,1,0-.33,3.19,3.19,0,0,0,1.4-2.63,4,4,0,0,0-3.89-3.9,8.78,8.78,0,0,0-5.2,1.55c-.09,0-.09.14-.05.24l.52.89a.68.68,0,0,0,.89.28,6.78,6.78,0,0,1,3.56-.89,2,2,0,0,1,1.92,1.78,1.83,1.83,0,0,1-1.82,1.88h-2.11a.2.2,0,0,0-.19.19v.94a.72.72,0,0,0,.7.71h1.55a2.07,2.07,0,1,1,0,4.13,8.93,8.93,0,0,1-4.51-1,.17.17,0,0,0-.23.09l-.8,1.41a.17.17,0,0,0,.1.23A11.39,11.39,0,0,0,135,23.54a4.23,4.23,0,0,0,4.12-4.14A3.76,3.76,0,0,0,137.37,16.63Z"/><path class="cls-2" d="M65.45,14.94a5.22,5.22,0,0,0-5.11-5.12,8.71,8.71,0,0,0-5.21,1.6c-.09,0-.09.14,0,.23l.51.94a.75.75,0,0,0,.94.28,7.09,7.09,0,0,1,3.8-.94,2.88,2.88,0,0,1,2.76,2.82v.75a.2.2,0,0,1-.18.19H58.28a4,4,0,1,0-.1,7.94,7.92,7.92,0,0,0,4.74-1.31.22.22,0,0,1,.28,0l.37.71a.7.7,0,0,0,.61.33h1a.2.2,0,0,0,.19-.19V14.94Zm-2.81,5.5a5.82,5.82,0,0,1-3.85,1.26,2.21,2.21,0,0,1-2.2-2.11,2.1,2.1,0,0,1,2.11-2.11h4.22a.19.19,0,0,1,.18.18v1.79A1.27,1.27,0,0,1,62.64,20.44Z"/><path class="cls-2" d="M76.84,10.76v4.7a.2.2,0,0,1-.19.18H70.28a.2.2,0,0,1-.19-.18V10.24a.2.2,0,0,0-.19-.19H68a.21.21,0,0,0-.19.19V23.16a.2.2,0,0,0,.19.19h1.45a.73.73,0,0,0,.71-.71V17.71a.2.2,0,0,1,.18-.19H76.7a.21.21,0,0,1,.19.19v5.45a.2.2,0,0,0,.19.19h2a.2.2,0,0,0,.18-.19V10.24a.2.2,0,0,0-.18-.19H77.59A.71.71,0,0,0,76.84,10.76Z"/><path class="cls-2" d="M88.33,16.77c-.1-.09-.1-.23,0-.28a5.57,5.57,0,0,0,1.73-1.88l2.49-4.27a.18.18,0,0,0-.14-.29H90.72a1.28,1.28,0,0,0-1,.57L87.15,15a1.1,1.1,0,0,1-1,.57H84.06a.21.21,0,0,1-.19-.19V10.24a.2.2,0,0,0-.18-.19h-2a.2.2,0,0,0-.19.19V23.16a.2.2,0,0,0,.19.19h1.45a.72.72,0,0,0,.7-.71V17.71a.21.21,0,0,1,.19-.19H86a1.28,1.28,0,0,1,1,.57l2.68,4.65a1.12,1.12,0,0,0,1,.56h1.69a.17.17,0,0,0,.14-.28L90,18.51A8.25,8.25,0,0,0,88.33,16.77Z"/><path class="cls-2" d="M47.26,12.36H42.33a.2.2,0,0,1-.18-.19v-5A.2.2,0,0,1,42.33,7h6.52a1.45,1.45,0,0,0,1.22-.7l.8-1.37a.17.17,0,0,0-.14-.28h-11a.2.2,0,0,0-.19.19V23.16a.2.2,0,0,0,.19.19h7.59a5.48,5.48,0,0,0,5.49-5.54A5.57,5.57,0,0,0,47.26,12.36ZM47,21H42.33a.2.2,0,0,1-.18-.19V14.89a.2.2,0,0,1,.18-.19h4.79a3.15,3.15,0,0,1,3.14,3.11A3.22,3.22,0,0,1,47,21Z"/><path class="cls-2" d="M176,10.76l-5.58,9.63a.1.1,0,0,1-.19-.05V10.24a.2.2,0,0,0-.19-.19h-2a.2.2,0,0,0-.19.19V23.16a.2.2,0,0,0,.19.19h2a1.44,1.44,0,0,0,1.22-.71L176.84,13a.1.1,0,0,1,.19.05v10.1a.2.2,0,0,0,.19.19h2a.2.2,0,0,0,.19-.19V10.24a.21.21,0,0,0-.19-.19h-2A1.31,1.31,0,0,0,176,10.76Z"/></svg>