<svg id="Layer_1" data-name="Layer 1" xmlns="http://www.w3.org/2000/svg" viewBox="0 0 104.05 62"><defs><style>.cls-1{fill:#109a2e;}.cls-2{fill:#9ac019;}.cls-3{fill:#f5e600;}.cls-4{fill:#fff;}.cls-5{fill:#00a330;}</style></defs><path class="cls-1" d="M78.15,33.59c12.75,6.33,25.9-8,25.9-8l-.08-.06S86.65,16.69,76.9,27.07Z"/><path class="cls-1" d="M78.88,31.9C93,33.44,100.43,15.45,100.43,15.45l-.09,0S81,13.1,75.46,26.2Z"/><path class="cls-1" d="M78.73,30.18C92.58,26.9,93.54,7.47,93.54,7.47h-.09S74.47,11.75,73.61,26Z"/><path class="cls-1" d="M78.21,28.41C90.08,20.56,84.29,2,84.29,2L84.2,2S67.86,12.57,72,26.21Z"/><path class="cls-1" d="M77.13,26.9C85.54,15.41,73.67,0,73.67,0L73.6.07S61.93,15.63,70.49,27Z"/><path class="cls-1" d="M75.59,25.89c3.93-13.68-12.52-24-12.52-24l0,.08s-5.59,18.64,6.36,26.36Z"/><path class="cls-1" d="M73.88,25.74C73,11.53,54,7.26,54,7.26v.1s1,19.43,14.82,22.71Z"/><path class="cls-1" d="M72,26c-5.71-13-25-10.5-25-10.5l0,.1s7.61,17.9,21.74,16.2Z"/><path class="cls-1" d="M70.41,26.88c-9.85-10.28-27.08-1.27-27.08-1.27l.05.08s13.29,14.21,26,7.75Z"/><path class="cls-1" d="M69.41,28.29c-12.71-6.4-25.94,7.87-25.94,7.87l.08.05s17.28,8.94,27.07-1.39Z"/><path class="cls-1" d="M68.68,30C54.54,28.36,47,46.31,47,46.31l.09,0s19.29,2.43,24.93-10.65Z"/><path class="cls-1" d="M68.51,31.85C54.68,35.19,53.8,54.63,53.8,54.63h.1s18.95-4.35,19.76-18.56Z"/><path class="cls-1" d="M69,33.64c-11.81,7.94-5.9,26.47-5.9,26.47l.09,0S79.47,49.42,75.29,35.8Z"/><path class="cls-1" d="M70.12,35.12C61.76,46.64,73.7,62,73.7,62l.07-.07s11.6-15.61,3-26.95Z"/><path class="cls-1" d="M71.68,35.84C67.66,49.5,84,60,84,60l0-.09s5.7-18.6-6.2-26.4Z"/><path class="cls-1" d="M73.47,36.27C74.41,50.48,93.4,54.66,93.4,54.66v-.1s-1-19.42-14.92-22.64Z"/><path class="cls-1" d="M75.33,36c5.75,13,25,10.43,25,10.43l0-.1S92.68,28.4,78.55,30.14Z"/><path class="cls-1" d="M76.74,35c9.78,10.35,27.07,1.44,27.07,1.44l0-.07s-13.2-14.29-25.93-7.92Z"/><path class="cls-2" d="M92,16c-6.1.73-13.78,3.12-17,10.18l1.56,2.44L78.36,30C86.4,28.22,90.21,21.51,92,16Z"/><path class="cls-2" d="M77.71,7c-4.15,4.51-8.38,11.37-6,19.25L73.8,27,76.94,27C81.68,20.41,80.08,12.63,77.71,7Z"/><path class="cls-2" d="M74,25.55,75.76,27l2.81,1c6.55-4.37,7.68-12,7.39-18C80.65,12.71,74.48,17.56,74,25.55Z"/><path class="cls-2" d="M96,22.68c-5.9-1.35-13.86-1.6-19.39,4.32L77,29.3l1.56,2.6C86.54,32.78,92.38,27.52,96,22.68ZM70.17,27l2.32,0,2.82-1.1c2.21-7.72-2-14.4-6.07-18.81C66.91,12.62,65.31,20.45,70.17,27Z"/><path class="cls-2" d="M62,10c-.25,5.95.91,13.69,7.54,18l2.73-1.06L74,25.47C73.52,17.5,67.33,12.68,62,10Z"/><path class="cls-2" d="M56,16c1.71,5.52,5.32,12.22,12.89,14l1.69-1.45L72,26C68.91,19.05,61.75,16.7,56,16Z"/><path class="cls-2" d="M70,27c-5.46-5.76-13.19-5.52-19-4.17,3.63,4.8,9.49,10.05,17.4,9.09l1.15-2.08Z"/><path class="cls-2" d="M69.59,28.55C62.39,25.15,55,28,50,31.05c5,3.05,12.39,5.79,19.53,2.37L70,30.66Z"/><path class="cls-2" d="M51,39.17c6.07,1.38,14.27,1.66,20-4.19l-.44-2.28L69,30.1C60.8,29.2,54.75,34.39,51,39.17Z"/><path class="cls-2" d="M55,46c6.07-.71,13.76-3.08,17-10.26L70.9,34l-2.51-2C60.55,33.81,56.79,40.45,55,46Z"/><path class="cls-2" d="M74,36.41,72.28,35l-2.91-1c-6.54,4.4-7.64,12-7.32,18C67.37,49.27,73.55,44.4,74,36.41Z"/><path class="cls-2" d="M69.36,55c4.13-4.52,8.34-11.4,5.94-19.24L73.08,35l-3,.06C65.29,41.62,67,49.39,69.36,55Z"/><path class="cls-2" d="M76.78,35l-3,.06-2.15.82c-2.3,7.85,2,14.67,6.16,19.12C80.11,49.36,81.68,41.49,76.78,35Z"/><path class="cls-2" d="M85,52c.28-6.26-.76-14.41-6.91-19l-2,.85L74,35.9C74.47,44.16,80.08,49.17,85,52Z"/><path class="cls-2" d="M78.26,32l-1.84,1.5L75,35.92C78.3,43,85.89,45.3,92,46,90.15,40.45,86.28,33.75,78.26,32Z"/><path class="cls-2" d="M96,39.17c-3.57-4.78-9.43-10-17.23-9l-1.41,2.6L77,35C82.42,40.85,90.26,40.54,96,39.17Z"/><path class="cls-2" d="M78.3,28.55,78,30.34l.6,3.12c6.78,3.32,13.58.68,18.4-2.37C92.16,28,85.2,25.14,78.3,28.55Z"/><path class="cls-3" d="M89,22a16.14,16.14,0,0,0-12,4.94l.35,1.87L78.78,30A16.19,16.19,0,0,0,89,22Z"/><path class="cls-3" d="M85,17c-4.07,1.54-8,4.26-10,9l1,1.58,1.83.63A16.67,16.67,0,0,0,85,17Zm6,16.89a16.84,16.84,0,0,0-12.78-4.12l-1,1.69.34,1.86A16.9,16.9,0,0,0,91,33.89Z"/><path class="cls-3" d="M91,28.17a16.11,16.11,0,0,0-13.23.52l-.3,1.82,1,1.65A16.5,16.5,0,0,0,91,28.17ZM84.83,45a16.9,16.9,0,0,0-7.08-11.41l-1.81.69L75,35.93A16.82,16.82,0,0,0,84.83,45Z"/><path class="cls-3" d="M89,40a16.62,16.62,0,0,0-10.56-8L77,33.21l-.3,1.87A16.65,16.65,0,0,0,89,40ZM73.46,49a16.46,16.46,0,0,0,1.83-13.13l-1.84-.64-1.79.66A16.4,16.4,0,0,0,73.46,49Z"/><path class="cls-3" d="M79.73,48a17.79,17.79,0,0,0-2.88-13.52l-1.86,0-1.47,1.3A17.51,17.51,0,0,0,79.73,48ZM62,44.64a16.78,16.78,0,0,0,10-9.21l-1-1.75L69.19,33C64.84,35.89,62.85,40.23,62,44.64Z"/><path class="cls-3" d="M67.6,48C71,45.2,73.67,41.39,74,36.28l-1.45-1.17h-2A16.23,16.23,0,0,0,67.6,48ZM56,34.15a17.36,17.36,0,0,0,13.62-.43L70,31.81l-1-1.66A16,16,0,0,0,56,34.15Z"/><path class="cls-3" d="M58,40a17.86,17.86,0,0,0,12.9-5l-.34-1.83L69,31.88A17.48,17.48,0,0,0,58,40Zm.18-18a17.22,17.22,0,0,0,10.94,8.28L70.66,29,71,27.12C67.35,23.35,62.67,22.08,58.18,22Z"/><path class="cls-3" d="M56,27.93c3.8,3.1,7.28,4.57,12.81,3.92l.89-1.65-.37-1.9A16.36,16.36,0,0,0,56,27.93ZM67.63,14a16.83,16.83,0,0,0,2.94,13.2l2,0L74,25.9A16.83,16.83,0,0,0,67.63,14Z"/><path class="cls-3" d="M73.52,13a16.78,16.78,0,0,0-1.87,13.34L73.5,27l1.81-.65A16.78,16.78,0,0,0,73.52,13Z"/><path class="cls-3" d="M79.72,14a16.42,16.42,0,0,0-6.28,11.66L75,26.88h1.91A16.23,16.23,0,0,0,79.72,14ZM62,16.89A16.42,16.42,0,0,0,69.12,28l1.73-.64,1-1.65A16.54,16.54,0,0,0,62,16.89Z"/><path class="cls-4" d="M77,27l.18.95,1.12.4a15.34,15.34,0,0,0,5-5.41A15.32,15.32,0,0,0,77,27Z"/><path class="cls-4" d="M75.51,26.1l.43.72,1.24,0A15.42,15.42,0,0,0,80,20.17,15.37,15.37,0,0,0,75.51,26.1Zm.4-7.42a15.14,15.14,0,0,0-2.25,7.18l.58.48,1.4-.55A15,15,0,0,0,75.91,18.68Z"/><path class="cls-4" d="M71.93,26.12l1,.34,1-.82a15,15,0,0,0-2.25-7.06A15,15,0,0,0,71.93,26.12Z"/><path class="cls-4" d="M67.56,20.1A15.24,15.24,0,0,0,70.48,27l1,0L72,26A15.38,15.38,0,0,0,67.56,20.1Zm-3.27,2.83a15.41,15.41,0,0,0,5,5.29l.84-.32.17-1.08A15.3,15.3,0,0,0,64.29,22.93Z"/><path class="cls-4" d="M69.48,29.3l-.21-1.11a15.33,15.33,0,0,0-7.21-1.64A15.39,15.39,0,0,0,68.7,30Zm-.8.68a16.45,16.45,0,0,0-7.46.88,16.46,16.46,0,0,0,7.59.89l.45-.79Zm.63,2.76-1-.79a15.24,15.24,0,0,0-6.41,3.27,15.27,15.27,0,0,0,7.25-1.68Z"/><path class="cls-4" d="M70.54,34.82l-.13-.67-1.48-.51a15.34,15.34,0,0,0-4.85,5.25A15.34,15.34,0,0,0,70.54,34.82Z"/><path class="cls-4" d="M67.35,41.77a15.35,15.35,0,0,0,4.7-6.08l-.36-.61-1.58,0A15.38,15.38,0,0,0,67.35,41.77Z"/><path class="cls-4" d="M72.84,35.4l-1.17.45a15.28,15.28,0,0,0-.32,7.47,15.3,15.3,0,0,0,2.29-7.26Z"/><path class="cls-4" d="M75.36,35.8l-.92-.31-.9.78a15.46,15.46,0,0,0,2.21,7A15.41,15.41,0,0,0,75.36,35.8Zm2.9-2.15a15.33,15.33,0,0,0,6.87,1.61A15.36,15.36,0,0,0,78.61,32l-.57.5Z"/><path class="cls-4" d="M76.81,35.11l-.9,0-.53.95a15.37,15.37,0,0,0,4.35,5.72A15.24,15.24,0,0,0,76.81,35.11ZM79,31.89a15.38,15.38,0,0,0,7-.87,15.3,15.3,0,0,0-7.37-.89l-.35.63Zm-1.08,1.6-1,.36L76.8,35A15.19,15.19,0,0,0,83,39,15.31,15.31,0,0,0,77.94,33.49Z"/><path class="cls-4" d="M77.7,29.35l1,.87a15.42,15.42,0,0,0,6.6-3.39,15.27,15.27,0,0,0-7.5,1.62Z"/><path class="cls-4" d="M73.61,36.49A5.66,5.66,0,1,0,68,30.83,5.65,5.65,0,0,0,73.61,36.49Z"/><path class="cls-5" d="M3.82,12H.08V35.26L0,38.73H3.61L3.7,35.8a6.31,6.31,0,0,0,2,2A8.11,8.11,0,0,0,10.1,39a8.53,8.53,0,0,0,7-3.31c1-1.28,1.91-3.32,1.91-7.06,0-4.23-1.35-6.16-2.34-7.27a8.3,8.3,0,0,0-6.32-2.47c-4.54,0-6,2.43-6.52,3.31ZM15.07,28.87c0,3.16-1.16,7.51-5.77,7.51-5.56,0-5.56-6.05-5.56-7.32s0-7.7,5.72-7.7C14.67,21.36,15.07,26.94,15.07,28.87Z"/><path class="cls-5" d="M21.12,47h3.69V37.08a6.86,6.86,0,0,0,6.11,3c4.76,0,9.08-3.26,9.08-10.71S35.92,19,31.63,19a7.73,7.73,0,0,0-6.78,3.62l-.08-3.3H21c.08,1.91.12,2.39.12,3.26Zm3.57-17.09c0-1.79,0-8.12,5.95-8.12,4.4,0,5.48,3.74,5.48,7.33,0,1.43-.2,4.3-1.63,6.25a5.08,5.08,0,0,1-4.2,2C25.05,37.32,24.69,32.34,24.69,29.91Z"/></svg>