<svg id="Layer_1" data-name="Layer 1" xmlns="http://www.w3.org/2000/svg" viewBox="0 0 97 61"><defs><style>.cls-1{fill:#0066b3;}</style></defs><path class="cls-1" d="M74,49.5A11.5,11.5,0,1,1,85.5,61,11.5,11.5,0,0,1,74,49.5Z"/><path class="cls-1" d="M35,11.5A11.5,11.5,0,1,1,46.5,23,11.5,11.5,0,0,1,35,11.5Z"/><path class="cls-1" d="M4.51,58h-4V43l4.05-.62V58ZM5,38.48a2.45,2.45,0,0,1-.74,1.76,2.52,2.52,0,0,1-3.53,0,2.46,2.46,0,0,1,0-3.52A2.61,2.61,0,0,1,2.55,36a2.46,2.46,0,0,1,1.74.72A2.55,2.55,0,0,1,5,38.48Z"/><path class="cls-1" d="M17,57.32a8.22,8.22,0,0,1-3.19.68,5.37,5.37,0,0,1-2.6-.61,3,3,0,0,1-1.45-1.6,3.51,3.51,0,0,1-.22-.89,13.27,13.27,0,0,1,0-1.44V45.27H8v-2.7H9.5c0-.72,0-1.37,0-1.92A15.26,15.26,0,0,1,9.64,39l4-1c-.08.7-.13,1.44-.17,2.23s-.07,1.56-.07,2.34h3.52l-1,2.7H13.39v7.57a3.55,3.55,0,0,0,.35,1.93,1.48,1.48,0,0,0,1.36.49,2.59,2.59,0,0,0,.57-.07c.21,0,.49-.12.83-.23Z"/><path class="cls-1" d="M29.9,49.5v-.15a4.92,4.92,0,0,0-.1-1.19,2.11,2.11,0,0,0-.37-.82,2,2,0,0,0-1.74-.78,2.11,2.11,0,0,0-1.74.75,3.35,3.35,0,0,0-.62,2.14v0ZM34,52.06H25.27v.1a3.33,3.33,0,0,0,.83,2.39,3.15,3.15,0,0,0,2.36.84,6.32,6.32,0,0,0,3.83-1.33l1.53,2.09A9.36,9.36,0,0,1,28.13,58a7.29,7.29,0,0,1-5.19-1.88,6.8,6.8,0,0,1-1.94-5A9.18,9.18,0,0,1,21.44,48a5.71,5.71,0,0,1,1.45-2.24A6.33,6.33,0,0,1,27.63,44a8.19,8.19,0,0,1,2.47.37,5.25,5.25,0,0,1,1.9,1,5.57,5.57,0,0,1,1.52,2.34,11,11,0,0,1,.48,3.5Z"/><path class="cls-1" d="M45,57.59a7.66,7.66,0,0,1-2.57.41,5.12,5.12,0,0,1-2.4-.55A3,3,0,0,1,38.61,56a4.79,4.79,0,0,1-.24-.73,5.68,5.68,0,0,1-.11-1c0-.4,0-1,0-1.65V41.41c0-1,0-1.79,0-2.49s-.09-1.36-.17-2L42.4,36a10,10,0,0,1,.17,1.46c0,.59,0,1.4,0,2.43V51.56c0,.85,0,1.49,0,1.92a7.11,7.11,0,0,0,.08.94,1.66,1.66,0,0,0,.19.48,1,1,0,0,0,.87.41,1.49,1.49,0,0,0,.48-.06Z"/><path class="cls-1" d="M54,57.59a7.66,7.66,0,0,1-2.57.41,5.12,5.12,0,0,1-2.4-.55A3,3,0,0,1,47.61,56a3.9,3.9,0,0,1-.24-.73,5.68,5.68,0,0,1-.11-1c0-.4,0-1,0-1.65V41.41c0-1,0-1.79,0-2.49s-.1-1.36-.18-2L51.4,36a10,10,0,0,1,.17,1.46c0,.59,0,1.4,0,2.43V51.56c0,.85,0,1.49,0,1.92a5.71,5.71,0,0,0,.08.94,1.42,1.42,0,0,0,.19.48,1,1,0,0,0,.87.41,1.49,1.49,0,0,0,.48-.06Z"/><path class="cls-1" d="M65.07,51.63h-.2a8.37,8.37,0,0,0-3.22.4,1.54,1.54,0,0,0-.92,1.58,1.63,1.63,0,0,0,.56,1.24,2.11,2.11,0,0,0,1.4.47A3.66,3.66,0,0,0,65,54.43ZM71,55.91,68.65,58a5.64,5.64,0,0,1-1.42-.67,3.42,3.42,0,0,1-1-.91,8.72,8.72,0,0,1-1,.69,7.36,7.36,0,0,1-3.41.71,7.45,7.45,0,0,1-4.33-1.07,3.49,3.49,0,0,1-1.5-3q0-4.55,8.14-4.49l1,0v-.54a2.12,2.12,0,0,0-.39-1.51,2.16,2.16,0,0,0-1.6-.42,11.16,11.16,0,0,0-4.9,1.47l-1.89-2.44c.43-.21.85-.4,1.27-.56s.9-.33,1.48-.51a16.6,16.6,0,0,1,2.36-.59A14.41,14.41,0,0,1,63.75,44a9.5,9.5,0,0,1,3.55.59,3.45,3.45,0,0,1,1.91,1.68,3.27,3.27,0,0,1,.25.85,10.11,10.11,0,0,1,.05,1.5L69.41,53a3.54,3.54,0,0,0,.22,1.66A3.14,3.14,0,0,0,71,55.91Z"/></svg>