<svg id="Layer_1" data-name="Layer 1" xmlns="http://www.w3.org/2000/svg" xmlns:xlink="http://www.w3.org/1999/xlink" viewBox="0 0 130 28"><defs><style>.cls-1{fill:none;}.cls-2{clip-path:url(#clip-path);}.cls-3{fill:#0069ff;fill-rule:evenodd;}</style><clipPath id="clip-path"><rect class="cls-1" width="130" height="28"/></clipPath></defs><g class="cls-2"><path class="cls-3" d="M15.63.08A14.36,14.36,0,0,0,7.2,1.78,14,14,0,0,0,1.31,8,13.74,13.74,0,0,0,.12,16.35a13.93,13.93,0,0,0,3.94,7.53,14.38,14.38,0,0,0,16.17,2.76,14.09,14.09,0,0,0,6.3-5.77A13.84,13.84,0,0,0,24.22,4.11,14.27,14.27,0,0,0,15.63.08ZM15.17,21.4a7.69,7.69,0,0,1-4.57-.8,7.6,7.6,0,0,1-3.24-3.28A7.37,7.37,0,0,1,8.79,8.73,7.69,7.69,0,0,1,17.51,7.3a7.55,7.55,0,0,1,3.34,3.18,7.38,7.38,0,0,1-1.32,8.79A7.51,7.51,0,0,1,15.17,21.4ZM35.9.63A3.36,3.36,0,0,0,34.47,1a3.3,3.3,0,0,0-1.14.89,3.21,3.21,0,0,0-.67,2.73A3.37,3.37,0,0,0,36,7.16h9.24L30.89,25.87a.93.93,0,0,0-.1,1,.92.92,0,0,0,.35.38,1,1,0,0,0,.5.14H54.18a3.37,3.37,0,0,0,3.36-2.59,3,3,0,0,0,0-1.44,3.2,3.2,0,0,0-.64-1.29,3.24,3.24,0,0,0-1.15-.89,3.31,3.31,0,0,0-1.42-.32H43.05L57.41,2.14a.87.87,0,0,0,.19-.48.91.91,0,0,0-.09-.51,1,1,0,0,0-.35-.38,1,1,0,0,0-.51-.14ZM126,.71a3.35,3.35,0,0,0-1.88,1.19,3.21,3.21,0,0,0-.7,2.08V14.86L105.48.84a1,1,0,0,0-.49-.2.93.93,0,0,0-.52.09.91.91,0,0,0-.39.34,1,1,0,0,0-.15.5V24a3.3,3.3,0,0,0,.71,2.09A3.29,3.29,0,0,0,108,27.29a3.29,3.29,0,0,0,1.33-.64,3.34,3.34,0,0,0,.91-1.13,3.27,3.27,0,0,0,.32-1.41v-11l17.91,14a1,1,0,0,0,.49.2.91.91,0,0,0,.51-.09.88.88,0,0,0,.4-.34,1,1,0,0,0,.14-.5V3.89a3.3,3.3,0,0,0-.32-1.41,3.35,3.35,0,0,0-.92-1.13A3.37,3.37,0,0,0,126,.71ZM79.35,6.54c7.58,0,13.24,3.93,13.24,7.46s-5.66,7.46-13.24,7.46S66.12,17.52,66.12,14,71.78,6.54,79.35,6.54Zm0-6.53C68.39,0,59.5,6.27,59.5,14s8.89,14,19.85,14S99.2,21.72,99.2,14,90.32,0,79.35,0Z"/></g></svg>