<svg id="Layer_1" data-name="Layer 1" xmlns="http://www.w3.org/2000/svg" xmlns:xlink="http://www.w3.org/1999/xlink" viewBox="0 0 88 74"><defs><style>.cls-1{fill:none;}.cls-2{clip-path:url(#clip-path);}.cls-3{fill:#ed1c24;}.cls-3,.cls-4{fill-rule:evenodd;}.cls-4{fill:#fff;}</style><clipPath id="clip-path"><rect class="cls-1" width="88" height="74"/></clipPath></defs><g class="cls-2"><path class="cls-3" d="M2.91,74,37.78,55.38c2.08.2,4.07.32,6.14.32C68.23,55.7,88,43.15,88,27.79S68.23,0,43.92,0,0,12.43,0,27.79C0,38.25,9.05,47.38,22.44,52.08Z"/><path class="cls-4" d="M28.58,15.12H20l.32,2.45h.83a8.54,8.54,0,0,1,1.52.12.37.37,0,0,1,.2.37,3.48,3.48,0,0,1-.44,1.52A20.86,20.86,0,0,0,21,21.92s-1.27,2-2.23,3.42L15.9,19c-.12-.12-.12-.24-.2-.56a1.31,1.31,0,0,0-.24-.48v-.12h.12c0-.13.32-.13,1.4-.25h1l-.36-2.45H7.09l.44,2.33.72.12a6.34,6.34,0,0,1,1.51.37,6.2,6.2,0,0,1,.8,1.53l4.54,9.61c-.11.48-.91,7.52-.91,7.52-.12.8-.36,1.4-.72,1.53-.12.12-.56.32-1.75.32l-1,.12L11,40.94H23.47L23,38.57l-.68-.12a6.37,6.37,0,0,1-2.31-.2c-.12,0-.24-.25-.36-.61V37a5.09,5.09,0,0,1,.12-1.21s.56-5.51.68-6.55l6.17-9.86a7,7,0,0,1,1-1.4,2.62,2.62,0,0,1,1.15-.37l1-.12-.48-2.33Z"/><path class="cls-4" d="M31.48,22.88l-2.67.57-3.34.72.32,2.09h.83c.8,0,1.16,0,1.28.12a.42.42,0,0,1,.12.24v.49L27.3,37v1.53a3.9,3.9,0,0,0,1.75,2.49,4.14,4.14,0,0,0,1.52.32c1.87,0,3.46-1.16,4.86-3.38.24-.36.6-1,1-1.52a3.09,3.09,0,0,0-.12,1v.12c0,.36.12.81.12,1.17a3,3,0,0,0,1,1.89,3.1,3.1,0,0,0,2,.68c1.28,0,2.56-.8,3.59-2.45a8.16,8.16,0,0,0,1.4-2.45l.36-.73-2-1.28-1.27,2c-.36.48-.48.68-.48.68l-.08.12V37l1.16-12.67.12-1.08H37.78l-.24.84c-.36,2-.59,3.38-.79,4.34a18.05,18.05,0,0,1-1.32,3.86,39,39,0,0,1-2,3.75c-.92,1.4-1.52,1.52-1.64,1.52V36.6l1-12.31v-.24a1.21,1.21,0,0,0-.32-.84A1.19,1.19,0,0,0,31.48,22.88Z"/><path class="cls-4" d="M50.7,22.88c-2.48.57-4.31,1.05-5.5,1.17l-.92.24.36,2.21h.8c1.07,0,1.39,0,1.51.12a.12.12,0,0,1,.12.12v.45l-1.4,13.75h4.55l.12-.84c.36-2,.55-3.5.68-4.55a20.87,20.87,0,0,1,1.15-4,24.84,24.84,0,0,1,2-3.38c1-1.41,1.52-1.53,1.76-1.53v.57c0,.12-1.16,13.75-1.16,13.75h4.51l.11-.84c.24-2.94.48-4.67.6-5.51a17.61,17.61,0,0,1,.92-3.06,14.07,14.07,0,0,1,2-3.38,3.11,3.11,0,0,1,1.76-1.53v.57l-.84,10.09v1.41a4,4,0,0,0,1.27,2.25,3.66,3.66,0,0,0,1.52.44,4,4,0,0,0,3-1.4,13.6,13.6,0,0,0,2.31-3.14l.12-.24.36-.73-2.08-1.4L69,36.6l-.12.24c-.12.12-.24.32-.36.44v.12c.12-1.16.8-9.13.8-9.13V26a4.26,4.26,0,0,0-1.4-2.45,3.63,3.63,0,0,0-2.19-.69c-1.63,0-3.15,1.05-4.78,3.26a2.87,2.87,0,0,1-.44.6V26a3.84,3.84,0,0,0-1.63-2.57A3.46,3.46,0,0,0,57,22.88c-1.51,0-3,.93-4.54,3-.24.36-.44.72-.68,1.09.12-1.41.36-3.54.36-3.54l-1-.69Z"/><path class="cls-4" d="M75.56,16.17a9.53,9.53,0,0,0-.47,3.66v3.26c0,.24,0,1.28-.12,4.82l-.12,6.23.71.21,1.52.24,1.27-5.87a33.06,33.06,0,0,1,.8-3.75c.84-3.17,1.28-5,1.4-5.63a6.82,6.82,0,0,0,0-2.21,4,4,0,0,0-.92-1.77,2.62,2.62,0,0,0-1.87-.72A2.31,2.31,0,0,0,75.56,16.17ZM73.33,36.6a2.51,2.51,0,0,0-.55,2,3.19,3.19,0,0,0,1.27,2.13,3,3,0,0,0,2,.68,2.45,2.45,0,0,0,2-.92,2.22,2.22,0,0,0,.47-2.09,3,3,0,0,0-1.15-2,3.18,3.18,0,0,0-2-.73A2.18,2.18,0,0,0,73.33,36.6Z"/></g></svg>